#!OML:ASF E:\emotionWalksFemale\Project 1\Capture day 1\Session 1\Female1.ASF
:FULLY-SPECIFIED
:DEGREES
2628
root 10.4351 15.4265 1.6761 -0.774818 -15.3229 -3.12298
lowerback 5.99801 -2.34979 1.61983
upperback -5.24345 -2.90168 1.31061
thorax -8.91965 -1.47345 0.876548
lowerneck -7.93943 -2.51337 -4.38804
upperneck 15.5902 -4.38882 9.20264
head 6.32488 -1.71446 3.31639
rclavicle 3.94091e-014 -1.43125e-014
rhumerus -50.4263 0.689377 -73.8321
rradius 39.5075
rwrist 14.2894
rhand -3.80902 -53.4961
rfingers 7.12502
rthumb 21.9373 -82.2723
lclavicle 3.94091e-014 -1.43125e-014
lhumerus -48.4266 5.68757 75.258
lradius 35.9134
lwrist -12.5164
lhand -5.15067 -30.068
lfingers 7.12502
lthumb 20.6486 -1.1464
rfemur 16.658 10.06 31.5338
rtibia 19.3661
rfoot -5.68251 -17.4528
rtoes -4.42949
lfemur -23.6514 -20.1153 -12.2836
ltibia 25.4917
lfoot -19.7697 27.9776
ltoes 10.9672
2629
root 10.4583 15.441 1.79229 -1.01059 -15.2371 -2.96787
lowerback 6.22569 -2.3226 1.54757
upperback -5.41986 -2.8679 1.2769
thorax -9.2452 -1.45266 0.89428
lowerneck -7.4608 -2.54924 -4.61182
upperneck 15.4306 -4.44398 9.42228
head 6.2032 -1.75422 3.42308
rclavicle 2.40778e-014 5.26779e-015
rhumerus -50.9192 0.565991 -73.6617
rradius 39.4674
rwrist 14.3328
rhand -4.56756 -53.2196
rfingers 7.12502
rthumb 21.2089 -82.0794
lclavicle 2.40778e-014 5.26779e-015
lhumerus -48.7328 5.69622 75.2106
lradius 35.8298
lwrist -12.7734
lhand -5.19688 -30.3627
lfingers 7.12502
lthumb 20.6042 -1.43629
rfemur 16.8069 9.88985 31.2625
rtibia 20.0872
rfoot -4.46452 -17.6518
rtoes -3.50906
lfemur -22.8879 -19.7509 -12.9794
ltibia 25.3084
lfoot -19.3057 27.0127
ltoes 8.95351
2630
root 10.4797 15.4544 1.91088 -1.27915 -15.1371 -2.97631
lowerback 5.99789 -2.30068 1.62517
upperback -5.24305 -2.8373 1.27743
thorax -8.92096 -1.44342 0.82961
lowerneck -6.26605 -2.45886 -5.67927
upperneck 14.0963 -4.33044 10.8554
head 5.61744 -1.71799 4.07023
rclavicle -2.50966e-014 -1.49089e-014
rhumerus -50.8436 0.268083 -73.4779
rradius 39.3616
rwrist 14.4227
rhand -4.76182 -53.2416
rfingers 7.12502
rthumb 21.0222 -82.1222
lclavicle -2.50966e-014 -1.49089e-014
lhumerus -48.5532 5.82841 75.1676
lradius 35.7745
lwrist -13.1581
lhand -5.11335 -30.6229
lfingers 7.12502
lthumb 20.6845 -1.7052
rfemur 16.9437 9.64801 31.1487
rtibia 20.9222
rfoot -3.36702 -17.7423
rtoes -2.04754
lfemur -22.0572 -19.124 -13.5531
ltibia 25.109
lfoot -18.698 25.8149
ltoes 6.78832
2631
root 10.5042 15.4673 2.02356 -1.47379 -14.958 -2.88611
lowerback 5.99502 -2.31169 1.55166
upperback -5.25853 -2.85659 1.31147
thorax -8.93048 -1.44692 0.909608
lowerneck -6.87573 -2.55933 -5.13497
upperneck 14.9519 -4.4391 9.8816
head 5.96956 -1.77329 3.66031
rclavicle 1.35422e-014 1.76918e-014
rhumerus -50.9676 0.116751 -73.1943
rradius 39.2662
rwrist 14.6148
rhand -4.10704 -53.4282
rfingers 7.12502
rthumb 21.6512 -82.2377
lclavicle 1.35422e-014 1.76918e-014
lhumerus -48.6053 5.91813 75.2408
lradius 35.7289
lwrist -13.4382
lhand -5.33126 -30.7962
lfingers 7.12502
lthumb 20.4751 -1.85578
rfemur 16.9465 9.28083 30.8452
rtibia 21.7101
rfoot -2.4435 -17.5863
rtoes -1.94272
lfemur -21.4446 -18.3838 -14.2074
ltibia 25.0127
lfoot -18.031 24.6046
ltoes 3.50186
2632
root 10.5334 15.4789 2.13704 -1.65621 -14.7631 -2.70068
lowerback 6.1117 -2.30149 1.48554
upperback -5.36491 -2.84845 1.27652
thorax -9.11405 -1.43943 0.917999
lowerneck -6.54165 -2.54843 -5.51176
upperneck 14.7435 -4.44613 10.3601
head 5.86353 -1.77806 3.8786
rclavicle 2.15433e-014 -1.61016e-014
rhumerus -51.3613 0.0408414 -72.9857
rradius 39.3118
rwrist 14.5772
rhand -3.82335 -53.2433
rfingers 7.12502
rthumb 21.9236 -82.0211
lclavicle 2.15433e-014 -1.61016e-014
lhumerus -48.664 6.02271 75.2726
lradius 35.598
lwrist -13.6026
lhand -5.57258 -31.13
lfingers 7.12502
lthumb 20.2432 -2.16481
rfemur 16.8689 8.82552 30.3762
rtibia 22.6036
rfoot -1.73156 -17.3016
rtoes -1.36376
lfemur -20.8314 -17.8212 -14.9333
ltibia 24.8784
lfoot -17.4959 23.6112
ltoes -0.514544
